<svg width="1440" height="792" viewBox="0 0 1440 792" fill="none" xmlns="http://www.w3.org/2000/svg">
<path fill-rule="evenodd" clip-rule="evenodd" d="M0.114808 2.54963C0.563662 6.06338 -1.21072 5.39132 32.0606 14.653C44.9184 18.2324 65.1694 23.9422 77.0629 27.3417C88.9564 30.74 102.632 34.5469 107.454 35.8011C112.276 37.0542 128.319 41.5766 143.105 45.8491C157.892 50.1217 178.669 56.0708 189.276 59.0691C199.884 62.0674 225.395 69.4516 245.968 75.4768C266.54 81.5031 291.788 88.8396 302.074 91.7808C354.193 106.685 406.157 121.784 406.568 122.144C407.328 122.808 400.913 131.059 399.638 131.059C398.993 131.059 392.82 129.426 385.921 127.431C379.021 125.436 370.747 123.101 367.532 122.242C364.318 121.384 336.705 113.688 306.171 105.14C225.698 82.6123 207.988 77.9957 205.167 78.8075C203.06 79.4139 203.371 79.7198 207.394 80.9993C215.495 83.5743 358.844 123.635 389.981 132.026L398.403 134.295L392.559 145.113C386.686 155.988 382.274 167.686 379.811 178.92C378.671 184.128 377.723 185.584 373.044 189.313C353.949 204.531 338.809 237.864 333.661 276.022C331.37 293.005 331.342 327.459 333.605 344.976C338.338 381.606 346.631 403.886 371.094 445.68C378.284 457.964 377.975 458.566 364.958 457.638C359.387 457.241 354.494 456.73 354.085 456.5C353.676 456.272 349.575 455.776 344.97 455.4C336.78 454.73 336.523 454.785 333.071 457.909C330.174 460.532 329.543 461.97 329.543 465.947C329.543 470.826 332.335 474.973 335.68 475.065C336.484 475.087 339.183 475.372 341.68 475.699C344.175 476.026 356.01 475.733 367.98 475.047L389.741 473.799L394.709 478.748C400.11 484.129 400.52 485.64 398.031 491.036C397.126 492.999 394.233 503.177 391.603 513.655C385.118 539.489 374.464 576.26 372.044 581.157L370.068 585.157L354.042 584.449C331.245 583.441 328.374 584.46 328.374 593.567C328.374 599.687 329.826 603.61 332.425 604.513C333.465 604.875 341.164 604.651 349.535 604.016C357.905 603.382 365.072 603.152 365.461 603.503C365.849 603.855 363.633 612.597 360.535 622.93C348.887 661.784 347.077 668.888 347.077 675.742C347.077 684.317 349.068 688.617 355.773 694.518C364.421 702.127 363.093 703.846 345.908 707.284C341.086 708.25 335.037 709.479 332.466 710.017C329.894 710.556 324.897 711.45 321.361 712.005C317.825 712.559 304.149 715.164 290.97 717.793C277.791 720.421 265.167 722.856 262.917 723.204C260.666 723.552 256.984 724.267 254.734 724.79C252.484 725.314 246.961 726.47 242.461 727.359C237.961 728.249 227.178 730.387 218.499 732.11C209.82 733.833 194.04 736.96 183.432 739.057C172.824 741.155 158.622 744.018 151.872 745.417C145.122 746.817 134.339 748.927 127.91 750.106C95.5641 756.033 63.7855 762.134 44.3339 766.148C32.4405 768.602 17.7125 771.623 11.605 772.86L0.500542 775.109L0.14403 780.116C-0.0511746 782.87 0.130003 785.123 0.547297 785.123C3.542 785.123 87.2825 769.401 138.43 759.235C146.144 757.701 164.817 754.119 179.925 751.274C195.033 748.428 211.076 745.315 215.576 744.357C220.077 743.399 236.12 740.295 251.228 737.46C278.077 732.424 299.081 728.357 314.348 725.242C327.846 722.487 348.58 718.495 358.531 716.737C367.563 715.141 368.72 715.146 375.316 716.821C379.212 717.812 385.185 720.234 388.59 722.207C391.995 724.179 396.802 726.496 399.275 727.356C406.351 729.819 462.506 742.492 471.571 743.672C476.067 744.257 484.48 745.448 490.266 746.318C514.077 749.897 523.924 750.725 542.281 750.691C564.592 750.649 575.451 748.907 588.55 743.268C606.423 735.574 615.93 719.63 622.325 686.619C623.94 678.283 625.559 670.615 625.921 669.577C626.714 667.319 629.436 666.682 653.91 663.024C664.197 661.487 680.503 658.834 690.146 657.129C699.789 655.423 710.309 653.726 713.524 653.359L719.368 652.689L727.258 659.194C736.682 666.962 737.922 665.642 728.721 657.637L722.293 652.045L727.259 650.884C737.106 648.582 782.647 640.926 789.624 640.402L796.759 639.864L800.377 647.731C802.365 652.057 806.962 663.19 810.587 672.47C819.292 694.743 833.755 727.735 838.751 736.717C846.063 749.865 855.094 756.285 870.412 759.224C891.591 763.287 908.553 759.514 951.393 741.211C1003.28 719.042 1024.28 713.002 1067.11 707.918C1087.1 705.547 1100.88 702.494 1105.73 699.366C1109.82 696.735 1112.71 691.171 1112.68 686.007C1112.65 681.725 1109.93 671.631 1102.86 649.654C1097.74 633.738 1095.42 628.025 1092.84 624.969C1091.77 623.702 1088.74 617.665 1086.09 611.553C1072.66 580.475 1061 552.872 1057.7 544.347C1052.77 531.565 1046.07 520.115 1039.66 513.484C1036.76 510.48 1034.38 507.457 1034.38 506.768C1034.38 506.079 1033.46 504.103 1032.34 502.377C1030.05 498.871 1030.34 497.94 1043.05 468.277C1050.62 450.609 1053.2 440.611 1053.96 426.041C1054.59 413.823 1055.11 412.348 1058.93 411.916C1059.9 411.807 1065.32 411.144 1070.98 410.445C1076.64 409.744 1081.59 409.459 1081.98 409.812C1084.31 411.922 1075.16 435.585 1065.64 452.067C1059.17 463.265 1053.13 470.245 1045.53 475.308C1041.92 477.709 1041.5 478.259 1043.74 477.654C1048.16 476.457 1052.31 473.492 1059.15 466.629C1070.34 455.407 1079.72 438.355 1085.59 418.59C1089.12 406.679 1088.52 407.149 1102.01 405.849L1108.27 405.246L1107.51 409.179C1105.21 421.018 1097.64 436.461 1088.87 447.246C1085.9 450.886 1083.48 454.055 1083.48 454.29C1083.48 454.525 1084.58 454.458 1085.92 454.14C1092.86 452.495 1106.8 429.393 1110.37 413.602C1111.58 408.254 1112.73 403.773 1112.93 403.643C1113.12 403.514 1128.01 401.132 1146.01 398.352C1164.01 395.573 1184.27 392.417 1191.02 391.341C1197.77 390.265 1208.02 388.633 1213.81 387.714C1219.6 386.796 1225.64 385.816 1227.25 385.537C1228.86 385.259 1245.69 382.657 1264.66 379.755C1283.62 376.854 1303.61 373.752 1309.07 372.861C1314.54 371.971 1332.69 369.568 1349.4 367.519C1366.12 365.47 1393.04 361.912 1409.24 359.612C1425.43 357.312 1438.9 355.43 1439.18 355.43C1439.46 355.43 1439.75 352.811 1439.83 349.609C1439.99 343.223 1439.96 343.201 1432.39 344.871C1425.63 346.364 1368.2 355.146 1359.92 355.953C1356.06 356.329 1352.11 356.837 1351.14 357.082C1350.17 357.327 1340.18 358.481 1328.93 359.646C1317.69 360.811 1306.12 362.02 1303.23 362.333C1279.12 364.945 1279.02 364.954 1273.42 365.004C1272.14 365.016 1269.37 365.448 1267.29 365.963C1265.2 366.48 1263.49 366.503 1263.49 366.014C1263.49 365.526 1265.99 364.598 1269.04 363.951C1274.67 362.758 1275.55 362.538 1278.68 361.541C1279.65 361.234 1285.7 359.939 1292.12 358.663C1298.55 357.387 1305.92 355.921 1308.49 355.405C1312.56 354.588 1335.53 349.816 1349.4 346.905C1351.97 346.366 1358.81 345.198 1364.6 344.311C1375.71 342.607 1389.44 339.738 1412.52 334.298C1431 329.944 1436.55 328.885 1437.66 329.505C1438.84 330.164 1439.99 327.437 1439.99 323.987C1439.99 321.469 1439.7 321.333 1435.61 321.913C1433.2 322.255 1427.54 322.835 1423.04 323.202C1418.54 323.57 1410.65 324.543 1405.51 325.365C1400.36 326.187 1393.79 327.061 1390.9 327.308C1372.23 328.901 1369.14 329.28 1368 330.127C1367.29 330.646 1366.44 330.821 1366.11 330.519C1365.77 330.215 1357.67 331.207 1348.1 332.722C1338.53 334.238 1328.59 335.694 1326.02 335.959C1323.45 336.223 1318.72 336.909 1315.5 337.483C1312.29 338.057 1308.43 338.738 1306.93 338.996C1305.44 339.254 1303.14 339.773 1301.84 340.148C1300.53 340.523 1297.02 340.988 1294.04 341.182C1286.09 341.696 1284.96 341.861 1243.62 348.587C1234.29 350.104 1224.3 351.723 1221.41 352.185C1215.1 353.194 1200.18 355.877 1185.76 358.595C1179.97 359.685 1167.61 361.841 1158.29 363.386C1130.41 368.005 1082.71 376.402 1067.37 379.388C1059.48 380.926 1052.75 381.94 1052.42 381.642C1052.09 381.344 1050.01 372.955 1047.8 363C1042.79 340.494 1034.14 316.501 1025.05 299.878C1018.61 288.102 1015.63 284.137 1003.64 271.415C1000.19 267.758 998.697 264.834 997.002 258.411C991.227 236.531 975.547 204.989 958.695 181.351C938.011 152.335 882.845 121.784 828.751 109.387C803.111 103.512 790.865 102.059 766.708 102.027C743.73 101.997 730.877 103.383 719.043 107.163L714.455 108.629L709.62 101.969C698.107 86.1144 675.095 72.2456 641.29 60.7868C591.084 43.7695 531.704 44.4627 486.553 62.5924C460.488 73.0585 439.828 87.6077 418.693 110.381L413.819 115.634L385.415 107.291C353.909 98.0357 318.212 87.6733 284.541 78.0073C272.326 74.501 241.555 66.2172 216.161 59.5983C190.767 52.9793 163.378 45.6745 155.298 43.3652C147.217 41.0558 138.275 38.6227 135.427 37.958C132.578 37.2944 116.045 32.5382 98.6874 27.3882C81.3293 22.2393 61.6043 16.5072 54.854 14.6509C48.1036 12.7935 38.6356 10.1476 33.8139 8.7696C28.9923 7.39267 20.2641 5.06746 14.4197 3.60375C8.57407 2.14004 2.8769 0.624478 1.76061 0.236061C0.0797411 -0.347094 -0.204299 0.0519052 0.114808 2.54963ZM725.797 19.3987C725.797 19.8305 727.615 22.8923 729.836 26.2039C737.556 37.7093 745.388 56.3205 752.137 79.1991L755.104 89.2535L754.545 81.8449C753.382 66.4003 744.918 43.9134 734.659 29.0096C729.692 21.7948 725.797 17.5698 725.797 19.3987ZM498.448 30.5146C478.05 34.7427 461.782 41.0834 444.545 51.523C430.571 59.9867 423.055 67.2439 423.055 72.2742C423.055 74.337 423.268 76.024 423.53 76.024C423.792 76.024 427.365 72.9833 431.469 69.2674C444.249 57.6964 465.259 46.6831 487.319 39.9911C500.061 36.125 521.324 31.5962 526.794 31.5825C528.884 31.5772 530.592 31.156 530.592 30.6469C530.592 27.8581 511.64 27.7798 498.448 30.5146ZM791.395 38.4523C791.364 39.0344 792.1 42.3682 793.032 45.8608C795.252 54.1827 795.211 71.018 792.942 82.7583C791.946 87.9178 791.385 92.3703 791.697 92.6529C792.742 93.5991 796.057 81.9434 797.407 72.578C798.963 61.7827 797.461 49.2295 793.736 41.8909C792.479 39.4175 791.427 37.8702 791.395 38.4523ZM668.524 46.1116C668.525 46.5551 671.023 48.3225 674.076 50.0371C690.188 59.0871 706.979 73.376 716.475 86.1175C719.783 90.5563 722.748 93.9547 723.063 93.67C724.106 92.7249 717.547 81.8323 711.62 74.6661C705.27 66.9898 693.939 57.8975 683.557 52.1474C675.912 47.914 668.52 44.9464 668.524 46.1116ZM1287.46 52.5581C1287.24 52.7496 1285.84 53.0841 1284.34 53.301C1281.16 53.7604 1271.46 55.894 1258.24 59.0416C1253.11 60.264 1247.59 61.4853 1245.97 61.7541C1238.49 62.9998 1237.17 63.3692 1236.82 64.3122C1236.62 64.8668 1235.65 65.0435 1234.68 64.7048C1233.23 64.2011 1233.19 63.909 1234.46 63.1194C1235.6 62.4135 1235.39 62.2558 1233.68 62.5363C1232.39 62.7469 1231.48 63.5078 1231.65 64.2254C1231.89 65.216 1231.39 65.2531 1229.58 64.3789C1228.27 63.7449 1226.64 63.5428 1225.95 63.9291C1225.25 64.3154 1223.03 64.7789 1221 64.9578C1218.97 65.1367 1214.77 66.2712 1211.67 67.4788C1208.56 68.6864 1205.27 69.6738 1204.36 69.6738C1203.45 69.6738 1202.7 70.1787 1202.7 70.7946C1202.7 71.4106 1202.19 71.6276 1201.56 71.2751C1200.93 70.9227 1199.22 71.2307 1197.76 71.9599C1196.3 72.6891 1193.53 73.3844 1191.6 73.5072C1189.67 73.6289 1186.52 74.4798 1184.59 75.3985C1182.66 76.3171 1179.66 77.0718 1177.93 77.076C1176.2 77.0792 1174.51 77.4887 1174.17 77.9851C1173.83 78.4815 1170.52 79.706 1166.8 80.7062C1163.08 81.7063 1158.2 83.1647 1155.95 83.9468C1151.34 85.5492 1147.88 86.5832 1147.46 86.4816C1147.18 86.4128 1138.66 89.2418 1134.32 90.8431C1129.8 92.5143 1127.29 93.2794 1125.03 93.671C1123.78 93.8891 1121.9 94.7696 1120.85 95.629C1119.8 96.4884 1118.33 97.1911 1117.59 97.1911C1116.12 97.1911 1101.72 102.016 1098.4 103.62C1097.28 104.158 1095.56 104.6 1094.58 104.6C1093.6 104.6 1091.88 105.076 1090.77 105.658C1089.65 106.239 1087.16 107.271 1085.23 107.95C1081.19 109.371 1081.97 109.141 1075.64 110.788C1072.93 111.491 1070.39 112.548 1069.99 113.138C1069.58 113.728 1068.29 113.932 1067.1 113.593C1065.91 113.251 1064.52 113.595 1063.99 114.361C1063.46 115.124 1060.52 116.335 1057.46 117.051C1054.41 117.767 1049.72 119.783 1047.06 121.531C1044.4 123.279 1041.6 124.708 1040.86 124.708C1038.86 124.708 1027.69 129.737 1026.8 131.036C1026.38 131.65 1025.61 131.911 1025.08 131.616C1024.56 131.322 1023.48 131.786 1022.7 132.646C1021.91 133.507 1020.79 133.949 1020.23 133.63C1019.66 133.312 1019.19 133.583 1019.19 134.234C1019.19 134.885 1018.72 135.153 1018.14 134.832C1017.57 134.509 1016.79 134.958 1016.43 135.828C1015.64 137.678 1016.14 137.788 1018.91 136.377C1020.03 135.808 1025.68 134.416 1031.46 133.282C1041.76 131.263 1057.79 127.402 1061.27 126.102C1062.23 125.741 1063.55 125.333 1064.19 125.194C1067.03 124.58 1084.13 119.528 1115.04 110.169C1190.03 87.4617 1213.92 79.9971 1244.78 69.6283C1250.25 67.7921 1258.93 64.9673 1264.07 63.3502C1269.21 61.734 1276.58 59.0903 1280.44 57.4763C1284.29 55.8623 1288.06 54.424 1288.8 54.279C1289.54 54.134 1291.1 53.5339 1292.26 52.9465C1294.05 52.0384 1293.88 51.903 1291.11 52.0448C1289.31 52.1358 1287.67 52.3676 1287.46 52.5581ZM546.957 55.9438C515.901 58.1229 490.83 65.8532 465.135 81.1739C450.667 89.7996 423.349 114.741 413.362 128.442C400.453 146.152 392.703 162.606 388.624 180.963C388.281 182.507 384.757 187.27 380.794 191.547C346.505 228.545 334.536 278.219 344.779 341.004C352.927 390.947 380.183 451.623 409.329 484.703L412.727 488.56L409.113 493.078C404.889 498.357 402.352 505.423 401.282 514.89C400.612 520.809 400.078 521.944 397.041 523.901C391.594 527.413 388.101 538.126 391.394 541.225C392.044 541.837 391.167 545.751 389.153 551.226C382.597 569.05 373.864 607.019 368.107 642.732C365.035 661.791 364.007 664.77 359.712 667.067C352.584 670.879 349.803 679.154 353.482 685.597C355.926 689.877 360.5 692.828 367.571 694.69L373.671 696.296L374.465 701.715C375.478 708.63 377.836 712.731 381.871 714.597C386.109 716.556 414.018 724.73 432.99 729.569C473.053 739.787 491.722 742.764 520.66 743.546C539.812 744.065 542.648 743.903 552.22 741.742C558.004 740.436 565.99 738.039 569.964 736.415C577.404 733.374 587.868 725.054 587.868 722.179C587.868 721.072 589.03 720.564 591.564 720.564C597.849 720.564 604.839 716.004 608.192 709.717C610.741 704.937 611.495 700.903 613.581 680.875C614.916 668.069 617.802 641.399 619.995 621.607C626.077 566.714 629.053 533.281 628.394 527.228C627.52 519.21 623.938 512.738 618.338 509.065L613.537 505.916L617.545 503.673C625.384 499.287 635.512 488.154 640.985 477.907C647.494 465.723 650.453 457.473 659.283 426.903C663.145 413.533 666.494 402.422 666.726 402.213C666.959 402.002 667.146 405.559 667.143 410.117C667.138 420.558 668.772 427.026 673.785 436.395C684.015 455.51 702.38 469.216 730.398 478.647C736.175 480.593 743.197 483.402 746.001 484.89C758.621 491.586 773.314 507.232 782.135 523.365C786.689 531.696 787.136 533.207 786.869 539.378C786.532 547.19 788.008 556.642 790.839 564.792L792.798 570.434L789.784 572.965L786.768 575.496L788.452 582.147C790.671 590.913 800.349 619.067 815.479 660.766C829.3 698.857 838.735 722.289 844.034 731.676C847.575 737.949 853.82 744.906 855.911 744.906C856.504 744.906 858.873 746.403 861.175 748.233C868.541 754.089 874.698 755.958 886.52 755.929C900.545 755.894 908.338 753.385 943.795 737.5C988.027 717.682 1015.92 709.088 1060.35 701.584C1071.09 699.77 1082.6 697.489 1085.93 696.517C1100.28 692.32 1104.87 681.86 1098.76 667.312C1098.07 665.674 1097.5 662.773 1097.5 660.866C1097.5 656.176 1094.62 647.792 1092.15 645.325C1091.04 644.218 1086.75 634.159 1082.6 622.973C1078.46 611.785 1070.87 593.328 1065.74 581.956C1052.26 552.102 1047.68 540.906 1046.13 534.049C1044.64 527.513 1041.3 524.062 1035.41 522.996C1033.15 522.586 1032.11 521.613 1031.63 519.455C1031.27 517.817 1028.52 511.824 1025.53 506.135C1020.23 496.065 1020.14 495.721 1022.05 493.081C1025.93 487.739 1033.54 472.189 1037.37 461.795C1045.66 439.276 1049.17 414.064 1047.17 391.417C1044.36 359.784 1037.09 333.412 1024.53 309.377C1016.54 294.071 1011.18 286.638 1001.66 277.641C991.9 268.412 990.474 265.962 988.757 255.459C982.841 219.263 949.847 175.019 909.234 148.818C896.157 140.382 873.564 129.653 857.297 124.155C842.288 119.081 814.425 112.753 796.515 110.352C777.119 107.75 747.769 107.712 737.569 110.276C729.816 112.224 720.599 116.038 714.993 119.619C711.623 121.771 709.433 121.433 709.433 118.759C709.433 115.084 702.839 105.01 696.273 98.6548C679.095 82.0291 644.591 67.3592 604.817 59.775C592.31 57.3895 566.624 54.6409 560.399 55.0219C559.113 55.1003 553.064 55.5151 546.957 55.9438ZM626.924 85.8138C633.176 93.9557 638.51 103.385 643.54 115.183C648.382 126.543 648.619 124.391 643.925 111.702C639.656 100.167 633.592 89.4281 628.015 83.5288C621.83 76.986 621.184 78.3386 626.924 85.8138ZM649.819 84.8549C649.819 85.0952 651.679 88.0893 653.951 91.5067C662.326 104.099 666.935 123.99 665.937 143.23C665.634 149.051 665.768 152.384 666.232 150.638C666.696 148.892 667.134 141.272 667.205 133.704C667.399 113.1 664.829 101.288 658.042 91.5988C655.259 87.6257 649.819 83.1637 649.819 84.8549ZM1350.84 96.6979C1342.87 101.606 1339.23 111.193 1342.88 117.67L1345.18 121.745L1334.58 132.752C1328.75 138.806 1323.62 143.759 1323.19 143.759C1321.64 143.759 1319.59 141.187 1319.59 139.243C1319.59 138.155 1321.98 134.61 1324.9 131.365C1331.03 124.553 1335.48 117.935 1336.53 114.079C1337.57 110.223 1333.39 105.658 1328.8 105.658C1321.71 105.658 1316.01 109.964 1310.91 119.191C1308.11 124.271 1305.57 125.674 1305.57 122.143C1305.57 119.506 1300.71 115.056 1298.19 115.391C1296.01 115.68 1295.75 116.473 1295.62 123.121C1295.48 130.99 1292.96 142.701 1291.41 142.701C1290.48 142.701 1288.05 135.986 1288.04 133.392C1288.03 131.738 1282.8 126.825 1281.05 126.825C1280.36 126.825 1279.23 127.961 1278.53 129.349C1277.35 131.693 1277.04 131.769 1274.17 130.414C1272.47 129.612 1269.85 128.952 1268.34 128.948C1265.01 128.941 1259.67 133.886 1255.86 140.517L1253.08 145.346L1253.02 141.224C1252.99 138.957 1254.63 129.718 1256.65 120.692C1260.21 104.866 1260.27 104.231 1258.19 102.857C1251.82 98.6411 1246.89 110.898 1240.13 147.739L1238.72 155.424L1235.24 152.767C1229.64 148.503 1224.5 149.352 1216.92 155.792C1209.65 161.971 1207.81 167.828 1212.25 170.643C1215.12 172.463 1216.73 171.993 1216.73 169.338C1216.73 167.33 1223.29 159.634 1225 159.634C1227.05 159.634 1226.08 165.977 1222.93 173.089C1219.21 181.496 1209.1 191.915 1205.77 190.761C1201.98 189.444 1200.06 184.051 1200.16 175.032C1200.36 157.075 1210.11 134.891 1222.92 123.209C1231.94 114.99 1232.93 116.936 1226.19 129.653C1220.62 140.16 1220.22 142.701 1224.13 142.701C1228.65 142.701 1236.01 133.693 1239.6 123.756C1242 117.112 1240.57 112.878 1235.27 110.889C1226.79 107.709 1212.49 117.555 1202.89 133.175C1194.97 146.073 1190.79 159.134 1190.17 172.864C1189.68 183.638 1189.85 184.86 1192.46 189.268C1196.02 195.271 1202.75 199.091 1208.45 198.338C1210.64 198.049 1214.5 196.309 1217.03 194.472C1221.11 191.503 1221.95 191.27 1224.62 192.372C1229.04 194.194 1230.45 192.327 1234.17 179.709C1237.23 169.304 1237.45 168.921 1239.17 171.139C1242.48 175.415 1250.33 175.938 1255.12 172.202C1256.45 171.164 1259.22 170.527 1262.1 170.595C1268.17 170.739 1272.49 167.917 1276.2 161.385C1277.73 158.684 1279.36 153.733 1279.81 150.381L1280.62 144.288L1283.9 150.638C1288.94 160.387 1292.77 163.367 1297.06 160.897C1298.48 160.079 1303.34 146.002 1304.98 137.938L1305.85 133.704L1307.49 137.906C1310.58 145.832 1319.23 151.193 1326.38 149.614C1328.11 149.231 1331.55 147.463 1334.01 145.686L1338.5 142.455L1336.57 145.821C1333.61 151.008 1334.62 155.402 1339.46 158.372C1347.4 163.24 1359.17 159.77 1364.04 151.121C1366.53 146.701 1367.06 139.24 1365.2 134.813C1363.86 131.628 1364.82 130.539 1374.76 123.885C1378.26 121.546 1383.98 117.237 1387.47 114.311C1392.88 109.778 1393.63 108.704 1392.52 107.059C1390.23 103.643 1387.52 104.319 1380.07 110.16C1370.04 118.026 1361.62 123.65 1359.88 123.65C1359.07 123.65 1358.12 122.955 1357.76 122.106C1357.4 121.256 1355.37 120.157 1353.25 119.663C1350.11 118.932 1349.34 118.19 1349.08 115.651C1348.9 113.819 1349.84 111.013 1351.37 108.833L1353.98 105.129L1354.61 108.833C1355.19 112.195 1355.85 112.672 1359.23 112.167C1360.98 111.907 1365.18 103.115 1365.18 99.7143C1365.18 97.9775 1364.55 95.9846 1363.78 95.2861C1361.46 93.1916 1355.48 93.8446 1350.84 96.6979ZM684.52 117.469C684.16 126.399 683.502 135.133 683.06 136.88C682.518 139.018 682.642 139.71 683.439 138.996C687.922 134.987 690.733 106.264 686.974 102.862C685.356 101.396 685.11 102.858 684.52 117.469ZM1322.71 118.006C1322.28 118.393 1321.93 119.203 1321.93 119.805C1321.93 120.468 1322.48 120.405 1323.31 119.646C1324.08 118.957 1324.43 118.148 1324.09 117.847C1323.76 117.545 1323.14 117.617 1322.71 118.006ZM749.266 123.708C741.335 125.693 722.936 133.28 717.143 136.954C713.606 139.197 714.92 138.854 725.832 134.683C744.249 127.646 754.01 125.57 771.384 124.995C782.606 124.624 790.842 124.971 799.904 126.198C811.545 127.772 816.844 127.884 811.506 126.442C800.5 123.468 790.945 122.271 775.475 121.926C760.504 121.594 756.673 121.854 749.266 123.708ZM647.666 126.825C647.666 128.28 647.932 128.876 648.255 128.148C648.58 127.421 648.58 126.23 648.255 125.502C647.932 124.775 647.666 125.37 647.666 126.825ZM648.743 131.676C648.799 132.909 649.076 133.159 649.449 132.316C649.787 131.552 649.745 130.638 649.356 130.287C648.968 129.936 648.693 130.56 648.743 131.676ZM365.449 140.329C359.213 146.568 352.921 165.853 352.921 178.726C352.921 185.144 354.858 195.272 356.23 196.033C356.66 196.271 357.085 189.966 357.174 182.02C357.348 166.357 359.552 156.207 365.211 145.015C368.367 138.774 368.44 137.337 365.449 140.329ZM1265.79 143.049C1263.05 148.67 1261.73 158.193 1263.22 161.728L1264.32 164.35L1266.11 161.198C1267.79 158.254 1270.5 145.543 1270.5 140.645C1270.5 137.007 1268.16 138.2 1265.79 143.049ZM1349.46 146.502C1343.62 152.997 1343.07 154.342 1346.27 154.342C1348.78 154.342 1352.45 150.957 1355.11 146.193C1359.38 138.545 1356.48 138.704 1349.46 146.502ZM494.671 149.784C495.809 150.053 497.387 150.035 498.178 149.745C498.969 149.455 498.039 149.236 496.11 149.257C494.182 149.278 493.534 149.515 494.671 149.784ZM334.803 154.849C334.16 155.036 326.533 157.231 317.854 159.726C305.751 163.206 301.325 164.983 298.86 167.353C293.695 172.317 294.966 178.685 301.123 178.685C302.592 178.685 312.272 175.498 322.633 171.604C343.167 163.886 345.77 162.067 343.27 157.193C341.907 154.534 338.823 153.681 334.803 154.849ZM1157.62 156.897C1153.93 158.351 1149.28 163.117 1143.81 171.038L1140.69 175.564L1135.65 172.89C1129.8 169.785 1127.1 169.568 1123.41 171.908C1121.01 173.433 1120.39 173.44 1117.06 171.983C1115.04 171.094 1112.98 170.591 1112.49 170.866C1112 171.139 1111.23 173.844 1110.78 176.876L1109.97 182.389L1108.43 178.995C1106.7 175.189 1103.28 173.095 1099.6 173.591C1097.78 173.835 1096.55 175.448 1094.9 179.743C1092.35 186.41 1090.21 208.58 1091.77 212.275C1093.26 215.846 1097.75 217.389 1102 215.795C1104.96 214.686 1106.11 214.821 1110.35 216.779C1118.59 220.586 1118.88 220.065 1120.87 197.899C1121.98 185.583 1124.33 177.626 1126.86 177.626C1128.3 177.626 1128.12 181.016 1126.16 190.856C1123.65 203.414 1123.85 207.855 1126.99 209.846C1129.91 211.7 1135.56 212.044 1136.66 210.435C1138.35 207.967 1140.59 209.587 1141.38 213.85C1143.17 223.433 1155.38 228.927 1161.43 222.871C1165.04 219.26 1166.27 214.759 1167.84 199.51L1169.28 185.564L1176.76 176.292C1184.17 167.108 1185 164.553 1181.02 163.17C1179.77 162.736 1177.24 164.224 1173.39 167.652L1167.64 172.784V165.188C1167.64 158.761 1167.29 157.423 1165.38 156.496C1162.56 155.129 1162.04 155.155 1157.62 156.897ZM1102.38 162.083C1099.6 164.77 1098.91 170.218 1101.37 170.218C1103.92 170.218 1110.75 163.13 1109.97 161.292C1108.95 158.882 1105.31 159.262 1102.38 162.083ZM1023.28 171.839C1016.27 174.538 1016.27 174.538 1014.66 172.378C1012.86 169.949 1009.57 169.55 1007.75 171.541C1007.08 172.269 1006.05 175.323 1005.44 178.329C1004.75 181.775 1002.99 185.351 1000.66 188.007C998.637 190.323 996.98 192.999 996.98 193.951C996.98 196.35 1000.32 197.281 1003.16 195.676C1005.51 194.347 1005.52 194.457 1004.88 218.102C1004.35 237.603 1003.88 242.489 1002.25 245.347C999.68 249.843 1001.31 253.828 1005.72 253.828C1007.34 253.828 1008.67 253.352 1008.67 252.77C1008.67 252.188 1010.23 251.711 1012.13 251.711C1014.03 251.711 1016.27 250.967 1017.1 250.057C1017.93 249.148 1020.13 247.123 1021.99 245.559C1027.74 240.72 1031.98 236.51 1034.7 232.933C1037.6 229.108 1038.62 228.851 1041.91 231.107C1045.02 233.236 1049.45 233.049 1053.88 230.602L1057.59 228.551L1056.96 232.084C1056.44 235.006 1056.75 235.738 1058.75 236.314C1062.76 237.466 1065.13 235.418 1071.14 225.609C1074.29 220.464 1077.05 216.051 1077.27 215.799C1077.49 215.548 1079.39 216.857 1081.51 218.71C1085.38 222.114 1090.49 223.24 1090.49 220.692C1090.49 219.93 1088.65 216.539 1086.4 213.155C1084.15 209.772 1082.31 206.094 1082.31 204.982C1082.31 203.868 1083.92 199.185 1085.88 194.573C1087.84 189.96 1089.75 184.515 1090.12 182.473C1090.7 179.204 1090.41 178.606 1087.67 177.476C1083.54 175.77 1082.38 176.998 1078.28 187.421C1076.51 191.935 1074.54 195.915 1073.92 196.264C1073.3 196.613 1071.64 195.956 1070.24 194.803C1064.91 190.413 1060.08 189.443 1060.11 192.77C1060.12 193.464 1062.22 196.412 1064.78 199.323C1067.33 202.233 1069.43 205.463 1069.44 206.501C1069.45 208.286 1064.06 218.902 1063.14 218.902C1062.9 218.902 1062.98 215.852 1063.31 212.125C1064.44 199.392 1061.44 193.502 1053.83 193.502C1047.27 193.502 1044.68 196.271 1037.25 211.227C1036.92 211.881 1027.39 207.688 1027.38 206.887C1027.38 206.39 1029.71 203.629 1032.57 200.75C1038.89 194.388 1044.9 183.827 1044.9 179.104C1044.9 170.378 1035.38 167.179 1023.28 171.839ZM1287.86 175.245C1284.45 178.932 1276.42 198.792 1273.51 210.7C1272.41 215.211 1271.02 218.902 1270.42 218.902C1269.82 218.902 1269.33 218.502 1269.33 218.014C1269.33 216.744 1263.88 214.669 1260.55 214.669C1256.41 214.669 1250.15 220.196 1247.06 226.568C1245 230.826 1244.34 234.174 1244.28 240.834C1244.21 248.801 1244.45 249.764 1247.19 252.244C1248.83 253.733 1252.01 255.223 1254.26 255.553C1259.64 256.344 1264.57 252.691 1268.07 245.318L1270.63 239.933L1273.1 242.776C1276.15 246.287 1282.67 248.871 1286.07 247.915C1290.52 246.666 1295 243.211 1299.8 237.332L1304.45 231.625L1308.79 233.731C1317.48 237.945 1322.55 236.286 1333.7 225.578C1349.07 210.829 1354.95 199.695 1348.18 198.157C1346.54 197.785 1345.05 197.657 1344.86 197.873C1344.67 198.088 1342.77 200.646 1340.63 203.556C1338.49 206.467 1333.13 212.731 1328.72 217.477C1321.29 225.471 1317.75 228.172 1316.36 226.913C1315.69 226.309 1320.2 219.532 1326.62 211.494C1332.89 203.64 1334.57 198.674 1332.1 195.267C1329.84 192.145 1325.5 191.013 1321.31 192.456C1319.59 193.047 1314.82 196.458 1310.71 200.035C1303.74 206.09 1303.02 206.455 1300.25 205.313C1298.61 204.638 1295.46 204.085 1293.24 204.085C1288.29 204.085 1288.25 203.608 1292.14 190.863C1295.37 180.272 1295.72 176.544 1293.64 174.663C1291.69 172.893 1289.86 173.077 1287.86 175.245ZM1026.79 179.385C1020.2 182.528 1018.2 184.981 1017.38 190.882C1016.95 194.022 1017.11 197.291 1017.76 198.336C1018.75 199.94 1019.68 199.255 1024.43 193.411C1029.41 187.29 1034.38 179.688 1034.38 178.198C1034.38 177.087 1030.25 177.733 1026.79 179.385ZM1150.22 185.194C1149.51 187.027 1148.94 189.033 1148.94 189.653C1148.94 191.543 1152.46 187.72 1152.98 185.262C1153.76 181.588 1151.63 181.535 1150.22 185.194ZM1240.9 189.469C1239.97 190.813 1237 197.992 1234.3 205.421C1229.63 218.266 1229.14 219.079 1224.39 222.037C1221.65 223.747 1216.64 228.028 1213.27 231.55C1209.9 235.072 1206.7 237.953 1206.14 237.953C1204.59 237.953 1203.01 231.126 1201.64 218.47C1200.32 206.261 1198.45 201.969 1194.47 201.969C1190.92 201.969 1183.82 213.009 1178.76 226.405C1174.58 237.446 1174.25 237.953 1171.08 237.953C1166.5 237.953 1166 239.316 1168.76 244.224C1170.07 246.55 1171.14 249.087 1171.14 249.861C1171.14 250.636 1168.78 253.374 1165.88 255.945C1162.99 258.516 1160.62 261.414 1160.62 262.386C1160.62 264.738 1163.66 266.918 1165.87 266.151C1167.2 265.687 1167.64 266.308 1167.64 268.678C1167.64 271.982 1171.14 276.054 1173.99 276.054C1175.79 276.054 1176.42 274.703 1177.67 268.116C1178.11 265.787 1179.24 262.11 1180.18 259.942C1181.58 256.718 1182.64 255.875 1186 255.304C1190.72 254.503 1192.14 255.745 1192.17 260.707C1192.22 266.312 1194.39 271.4 1197.37 272.84C1201.5 274.844 1203.45 273.645 1204.19 268.649C1204.55 266.222 1205.05 264.052 1205.3 263.825C1205.55 263.599 1207.94 264.396 1210.62 265.595C1215.2 267.645 1215.71 267.675 1219.25 266.079C1222.87 264.439 1224.83 265.045 1224.9 267.824C1224.93 269.137 1232.05 272.003 1233.79 271.401C1234.69 271.086 1235.43 269.772 1235.43 268.481C1235.43 267.19 1236.46 262.77 1237.7 258.658C1238.95 254.547 1240.82 245.705 1241.86 239.011C1242.89 232.317 1245.07 219.604 1246.68 210.759C1250.26 191.181 1250.12 187.811 1245.74 187.353C1243.48 187.116 1242.12 187.71 1240.9 189.469ZM387.528 199.409C386.431 201.999 386.669 202.255 388.572 200.532C390.559 198.733 390.813 197.735 389.282 197.735C388.708 197.735 387.919 198.489 387.528 199.409ZM1050.15 206.228C1047.54 210.794 1045.82 220.208 1047.04 223.203L1048.06 225.703L1049.4 223.444C1051 220.735 1054.21 208.756 1054.24 205.408C1054.26 202.057 1052.31 202.449 1050.15 206.228ZM656.833 213.431C682.802 221.952 698.967 237.492 705.996 260.694C709.008 270.635 709.503 287.233 706.952 292.793C705.455 296.055 705.339 295.424 705.312 283.796C705.291 274.896 704.678 269.46 703.185 264.941C700.361 256.393 692.761 242.505 688.417 237.953C685.029 234.401 685.096 234.663 690.07 244.303C697.719 259.13 700.522 269.849 700.447 283.991C700.36 300.473 697.808 308.13 686.692 325.267C669.745 351.392 658.56 374.932 634.391 435.336C623.456 462.666 619.454 473.284 619.925 473.711C621.36 475.01 638.485 446.455 643.998 433.572C646.073 428.722 650.532 417.133 653.906 407.819C666.021 374.374 678.997 348.67 694.244 327.913C711.469 304.463 716.031 293.012 714.907 276.054C713.081 248.503 697.573 227.155 671.444 216.216C664.136 213.156 653.292 210.334 649.47 210.495C648.697 210.527 652.011 211.848 656.833 213.431ZM1290.59 217.453C1287.59 222.803 1284.53 232.231 1284.53 236.158C1284.53 238.769 1284.8 239.063 1286.24 237.985C1288.2 236.507 1292.18 227.353 1293.94 220.252C1295.57 213.637 1293.65 212.025 1290.59 217.453ZM1021.75 216.818C1016.98 219.443 1016.65 220.262 1017.08 228.347L1017.44 234.924L1023.74 227.748C1027.21 223.801 1030.11 219.911 1030.17 219.104C1030.24 218.297 1029.23 216.98 1027.92 216.179C1025.86 214.91 1025.06 214.993 1021.75 216.818ZM963.24 231.603C963.281 239.461 963.69 247.081 964.148 248.536C964.904 250.942 965.053 250.798 965.772 246.949C967.207 239.267 966.637 222.814 964.835 219.961C963.328 217.573 963.172 218.708 963.24 231.603ZM1093.2 229.221C1089.43 237.344 1083.31 261.886 1082.64 271.603C1082.09 279.519 1081.56 281.636 1079.89 282.441C1077.79 283.458 1074.78 290.501 1073.57 297.221C1072.22 304.719 1077.43 305.688 1080.78 298.558C1081.8 296.368 1082.87 295.171 1083.16 295.898C1083.44 296.626 1085.17 297.221 1087 297.221C1089.77 297.221 1090.4 296.725 1090.71 294.323C1091.02 291.87 1091.76 291.325 1095.53 290.774C1101.29 289.934 1109.33 282.915 1112.73 275.758L1115.23 270.491L1117.41 273.734C1120.05 277.657 1123.67 279.577 1126.77 278.687C1128.03 278.324 1129.06 278.197 1129.06 278.403C1129.06 278.611 1125.75 281.858 1121.71 285.619C1112.39 294.277 1108.02 301.963 1108.02 309.681C1108.02 314.564 1108.51 315.817 1111.44 318.469C1118.25 324.63 1126.23 321.339 1131.82 310.075C1133.53 306.619 1136.32 298.982 1138.02 293.105C1140.86 283.297 1141.45 282.243 1145.11 280.285C1149.68 277.845 1149.92 274.67 1145.57 274.111C1143.09 273.792 1142.89 273.38 1143.56 269.878C1143.98 267.744 1144.64 262.092 1145.04 257.316C1145.91 246.925 1144.04 242.879 1138.63 243.446C1135.65 243.758 1135.45 244.142 1134.69 251.182C1134.25 255.257 1133.57 260.09 1133.2 261.923C1132.5 265.292 1128.53 270.762 1126.77 270.762C1126.25 270.762 1125.61 267.371 1125.35 263.226C1124.96 256.912 1124.44 255.367 1122.17 253.701C1120.68 252.607 1118.46 251.711 1117.25 251.711C1115.41 251.711 1115.04 252.51 1115.04 256.474C1115.04 261.077 1113.61 262.8 1112.32 259.756C1111.29 257.319 1103.82 255.588 1099.81 256.856C1097.9 257.458 1096.34 257.619 1096.34 257.213C1096.34 256.806 1097.62 250.58 1099.18 243.377C1102.25 229.196 1101.87 225.252 1097.47 225.252C1095.78 225.252 1094.49 226.446 1093.2 229.221ZM1256.84 230.28C1254.53 235.22 1253.27 248.536 1255.1 248.536C1256.67 248.536 1259.77 239.387 1260.75 231.867C1261.62 225.129 1259.62 224.316 1256.84 230.28ZM1186.04 237.029C1184.96 240.094 1184.27 242.784 1184.52 243.008C1184.77 243.233 1186.07 242.885 1187.41 242.235C1189.91 241.023 1190.52 237.239 1188.85 233.382C1188.2 231.913 1187.54 232.776 1186.04 237.029ZM1221.04 239.663C1219.06 242.642 1217.51 246.767 1217.15 250.016L1216.54 255.416L1218.95 252.77C1223.04 248.272 1225.06 243.399 1224.69 238.956L1224.33 234.71L1221.04 239.663ZM793.815 242.741C794.689 243.531 810.424 247.408 810.924 246.955C811.153 246.749 810.993 245.591 810.57 244.382C809.886 242.432 808.874 242.186 801.502 242.186C796.937 242.186 793.478 242.436 793.815 242.741ZM973.649 257.657C970.736 264.02 959.232 276.123 953.584 278.768C949.047 280.892 945.899 280.661 938.828 277.679C932.263 274.913 930.338 274.897 936.236 277.659C938.186 278.571 939.473 279.769 939.098 280.32C938.721 280.87 939.143 281.068 940.034 280.758C941.046 280.407 941.648 280.907 941.64 282.094C941.593 288.223 942.104 290.017 943.736 289.45C944.926 289.036 945.214 289.37 944.706 290.569C944.228 291.698 944.441 292.02 945.337 291.518C946.195 291.038 946.457 291.312 946.053 292.267C945.702 293.095 946.234 294.514 947.234 295.421C948.236 296.327 949.055 297.79 949.055 298.671C949.055 299.55 949.581 300.565 950.224 300.925C950.867 301.285 951.393 302.532 951.393 303.696C951.393 304.86 951.925 305.515 952.576 305.151C953.233 304.783 954.077 305.931 954.476 307.734C954.869 309.519 955.675 310.979 956.266 310.979C956.857 310.979 957.255 311.575 957.15 312.302C956.738 315.175 957.325 316.272 959.283 316.287C960.907 316.3 960.994 316.494 959.712 317.23C958.359 318.007 958.41 318.564 960.027 320.654C961.089 322.028 962.342 323.04 962.812 322.906C963.282 322.773 963.666 323.562 963.666 324.663C963.666 325.764 964.06 327.024 964.543 327.464C965.026 327.906 965.42 329.139 965.42 330.206C965.42 331.488 966.313 332.175 968.05 332.23C969.644 332.281 970.035 332.544 969.042 332.901C967.835 333.334 968.141 333.887 970.211 335.007C971.754 335.842 972.097 336.27 970.972 335.957C967.994 335.129 968.467 336.858 971.641 338.395C973.263 339.182 974.32 340.636 974.271 342.014C974.224 343.281 974.765 344.222 975.471 344.106C976.178 343.989 976.803 345.365 976.859 347.161C976.916 348.958 977.52 350.934 978.204 351.554C978.888 352.173 979.447 353.536 979.447 354.584C979.447 355.631 979.87 356.489 980.386 356.489C980.904 356.489 981.451 358.394 981.603 360.722C981.755 363.051 982.839 367.695 984.013 371.041L986.147 377.127L988.057 373.192C990.604 367.945 990.453 361.023 987.555 350.139C983.685 335.597 983.408 326.013 986.418 310.666C989.93 292.752 989.519 280.125 985.251 274.911C980.961 269.667 979.776 266.684 978.84 258.767C978.381 254.886 977.637 251.711 977.188 251.711C976.738 251.711 975.145 254.387 973.649 257.657ZM1099.58 265.205C1096.09 268.813 1093.87 274.098 1094.22 277.969L1094.58 281.874L1098.28 278.612C1102.16 275.176 1105.32 267.84 1104.13 265.02C1103.21 262.854 1101.8 262.911 1099.58 265.205ZM924.509 271.237C924.509 271.528 926.087 272.505 928.015 273.408C929.944 274.31 931.522 274.811 931.522 274.52C931.522 274.229 929.944 273.252 928.015 272.349C926.087 271.447 924.509 270.946 924.509 271.237ZM661.601 292.546C661.657 293.779 661.934 294.03 662.307 293.186C662.644 292.422 662.602 291.509 662.214 291.157C661.826 290.806 661.55 291.43 661.601 292.546ZM1000.49 291.8C1000.49 292.31 1001.28 293.321 1002.24 294.046C1003.2 294.771 1003.99 295.946 1003.99 296.659C1003.99 297.914 1015.85 314.659 1018.26 316.8C1020.59 318.881 1014.13 308.177 1007.88 299.602C1001.7 291.132 1000.49 289.853 1000.49 291.8ZM1120.78 299.366C1116.96 304.766 1114.75 314.154 1117.29 314.154C1118.91 314.154 1123.39 302.571 1122.99 299.45L1122.64 296.749L1120.78 299.366ZM985.562 303.571C985.562 305.608 985.803 306.441 986.096 305.423C986.391 304.405 986.391 302.737 986.096 301.719C985.803 300.701 985.562 301.533 985.562 303.571ZM736.317 332.146C737.282 332.711 738.597 333.172 739.239 333.172C739.882 333.172 739.619 332.711 738.655 332.146C737.691 331.582 736.376 331.121 735.733 331.121C735.09 331.121 735.353 331.582 736.317 332.146ZM744.499 334.971C746.75 335.849 749.844 337.596 751.374 338.854L754.158 341.143L752.566 338.778C751.691 337.478 748.981 335.692 746.544 334.809C740.835 332.741 739.124 332.877 744.499 334.971ZM733.103 338.741C738.266 340.705 737.128 342.73 730.862 342.73C721.282 342.73 725.953 343.494 739.239 344.1C748.245 344.511 750.386 344.414 746.385 343.776C743.244 343.274 740.088 342.288 739.372 341.584C738.401 340.629 738.442 340.493 739.532 341.049C740.336 341.46 740.993 341.301 740.993 340.696C740.993 339.696 738.863 339.018 732.226 337.909C730.94 337.694 731.334 338.068 733.103 338.741ZM979.693 351.619C980.522 352.434 981.385 352.942 981.609 352.748C982.302 352.152 980.545 350.139 979.332 350.139C978.701 350.139 978.863 350.805 979.693 351.619ZM1030.76 366.808C1030.7 367.245 1030.46 370.793 1030.23 374.696C1029.88 380.579 1030.1 381.688 1031.51 381.197C1033.13 380.633 1033.51 379.67 1033.51 376.068C1033.51 369.201 1033.04 366.014 1032.05 366.014C1031.4 366.014 1030.83 366.371 1030.76 366.808ZM1035.49 383.15C1035.45 383.912 1035.47 389.536 1035.53 395.648C1035.66 409.023 1034.3 418.867 1029.59 438.511C1025.48 455.649 1018.62 475.08 1013.35 484.533C1009.42 491.583 1009.27 493.974 1013.07 489.109C1020.53 479.542 1029.08 458.705 1033.96 438.197C1036.34 428.2 1037.03 421.707 1037.55 404.529C1038.02 389.258 1037.83 383.037 1036.88 382.505C1036.15 382.098 1035.52 382.388 1035.49 383.15ZM1434.46 382.623C1435.6 382.892 1437.17 382.874 1437.97 382.584C1438.76 382.294 1437.83 382.074 1435.9 382.096C1433.97 382.117 1433.32 382.354 1434.46 382.623ZM663.304 452.005C656.273 469.982 642.149 493.958 633.345 502.864L627.975 508.295L633.053 515.011C635.943 518.834 638.13 522.951 638.13 524.57C638.13 529.939 632.316 603.623 629.973 627.957C628.683 641.346 627.624 652.656 627.62 653.093C627.615 653.53 628.795 653.892 630.24 653.899C633.776 653.914 668.951 647.299 669.69 646.48C670.012 646.124 671.327 645.812 672.613 645.786C673.898 645.761 676.513 645.164 678.422 644.459C680.332 643.755 682.831 643.4 683.974 643.671C685.119 643.942 686.055 643.732 686.055 643.204C686.055 642.677 687.501 642.214 689.269 642.177L692.484 642.11L688.977 640.668C687.049 639.877 681.923 637.79 677.587 636.033C669.498 632.754 661.508 627.895 661.508 626.254C661.508 625.746 664.063 626.754 667.186 628.494C673.515 632.02 687.31 637.381 694.677 639.177C701.607 640.867 714.54 640.436 728.385 638.054C739.524 636.138 768.92 631.445 778.397 630.07C785.03 629.107 790.087 627.354 790.071 626.023C790.063 625.341 788.712 620.972 787.068 616.315C780.068 596.481 778.145 585.153 777.186 558.106C776.692 544.135 775.753 531.179 775.101 529.313C772.913 523.056 766.646 513.538 757.406 502.443C742.722 484.807 743.346 485.186 721.936 480.908C698.778 476.281 690.123 472.476 678.298 461.728C673.654 457.506 669.276 452.439 668.42 450.297C667.575 448.181 666.567 446.449 666.18 446.449C665.793 446.449 664.498 448.95 663.304 452.005ZM1296.8 482.092C1251.17 484.714 1205.01 488.18 1202.7 489.159C1198.38 490.994 1198.99 493.472 1203.87 493.93C1214.45 494.922 1303.39 487.242 1316.67 484.19C1317.96 483.895 1319.67 483.618 1320.47 483.573C1321.27 483.528 1321.93 483.015 1321.93 482.433C1321.93 481.431 1310.91 481.282 1296.8 482.092ZM1428.33 483.712C1422.89 484.259 1417.67 485.093 1416.74 485.564C1415.12 486.386 1435.52 485.887 1438.53 485.031C1440.07 484.592 1440.61 482.333 1439.11 482.575C1438.63 482.652 1433.78 483.165 1428.33 483.712ZM1130.2 493.005C1119.55 493.947 1116.21 494.827 1116.21 496.679C1116.21 499.15 1119.54 499.41 1142.35 498.728C1164.7 498.06 1170.56 497.09 1170.56 494.061C1170.56 492.753 1167.9 492.465 1154.78 492.357C1146.1 492.286 1135.04 492.577 1130.2 493.005ZM1070.62 499.888C1069.66 500.109 1066.24 500.615 1063.02 501.011C1057.68 501.668 1057.43 501.819 1060.1 502.771C1061.82 503.383 1068.29 503.538 1075.82 503.145C1088 502.511 1090.41 502.12 1089.16 500.981C1088.41 500.3 1072.82 499.382 1070.62 499.888ZM999.61 501.183C1001.38 501.425 1004.27 501.425 1006.04 501.183C1007.81 500.941 1006.36 500.743 1002.82 500.743C999.288 500.743 997.841 500.941 999.61 501.183ZM1011.01 501.219C1011.02 502.71 1016.64 508.365 1017.42 507.668C1018.63 506.576 1014.65 500.425 1012.73 500.425C1011.78 500.425 1011.01 500.782 1011.01 501.219ZM1018.02 515.193C1018.02 516.958 1020.7 521.592 1021.71 521.592C1023 521.592 1022.95 520.229 1021.56 516.899C1020.46 514.288 1018.02 513.111 1018.02 515.193ZM597.804 529.001C596.147 529.646 597.575 529.932 602.696 529.985C606.672 530.025 611.274 530.524 612.923 531.091C615.517 531.984 615.922 532.754 615.922 536.799C615.922 542.69 618.961 544.504 620.048 539.261C620.999 534.665 618.95 530.245 615.282 528.982C611.639 527.728 601.046 527.739 597.804 529.001ZM1038.59 543.653C1038.15 544.291 1038.84 547.089 1040.13 549.872C1043.42 557.004 1060.09 597.97 1065.88 613.14C1072.19 629.688 1072.99 631.246 1072.37 625.817C1071.75 620.465 1050.36 566.963 1047.47 563.56C1046.9 562.889 1045.54 559.35 1044.43 555.698C1041.71 546.689 1039.55 542.238 1038.59 543.653ZM613.731 556.783C612.992 562.75 611.622 574.775 610.686 583.506C604.055 645.351 599.807 679.613 598.338 683.112C597.583 684.909 597.952 685.601 600.151 686.507C603.354 687.829 602.978 689.637 606.039 658.121C607.724 640.748 611.496 607.247 615.453 574.51C618.712 547.539 618.789 545.935 616.836 545.935C615.467 545.935 614.774 548.357 613.731 556.783ZM584.546 551.226C584.546 552.682 584.811 553.278 585.135 552.549C585.46 551.822 585.46 550.632 585.135 549.904C584.811 549.176 584.546 549.771 584.546 551.226ZM800.659 550.134C798.771 551.196 798.811 559.36 800.723 563.281C801.498 564.873 801.62 564.082 801.144 560.527C800.759 557.655 801.032 554.602 801.786 553.325C803.464 550.487 802.895 548.877 800.659 550.134ZM583.421 558.106C583.444 559.852 583.706 560.438 584.003 559.409C584.299 558.379 584.28 556.95 583.959 556.234C583.639 555.517 583.397 556.36 583.421 558.106ZM661.8 560.441C659.463 560.848 659.17 561.531 659.17 566.571C659.17 575 660.716 575.963 673.209 575.319C686.736 574.62 691.899 572.1 691.899 566.195C691.899 560.595 689.647 559.676 676.329 559.837C669.784 559.917 663.246 560.188 661.8 560.441ZM582.116 566.661C582.172 567.893 582.449 568.144 582.822 567.301C583.16 566.537 583.118 565.623 582.73 565.272C582.342 564.921 582.066 565.545 582.116 566.661ZM575.195 570.277C575.195 571.732 575.46 572.328 575.784 571.6C576.109 570.873 576.109 569.682 575.784 568.954C575.46 568.227 575.195 568.822 575.195 570.277ZM1109.33 579.545C1113.05 586.088 1115.43 597.197 1114.3 602.821C1113.88 604.915 1114.09 606.261 1114.84 606.261C1116.61 606.261 1117.79 597.516 1116.87 591.209C1115.91 584.659 1113.45 579.071 1110.1 575.848C1105.95 571.843 1105.68 573.137 1109.33 579.545ZM1086.42 578.799C1086.98 579.641 1088.93 582.206 1090.75 584.497C1095.03 589.89 1097.81 598.671 1097.32 605.242C1097.08 608.349 1097.39 610.354 1098.09 610.209C1098.76 610.07 1099.26 606.087 1099.26 600.934C1099.26 593.335 1098.79 591.076 1096.28 586.679C1094.5 583.54 1091.73 580.618 1089.35 579.361C1086.6 577.908 1085.71 577.735 1086.42 578.799ZM795.931 580.491C795.931 582.697 798.763 590.386 799.576 590.386C800.142 590.386 800.606 588.298 800.606 585.747C800.606 581.997 800.157 581.001 798.268 580.554C796.983 580.25 795.931 580.221 795.931 580.491ZM572.765 585.711C572.821 586.944 573.098 587.195 573.471 586.351C573.809 585.587 573.767 584.674 573.379 584.322C572.99 583.971 572.715 584.595 572.765 585.711ZM1025.45 591.872C1025.64 594.796 1026.8 594.584 1027.71 591.461C1028.09 590.13 1027.75 589.327 1026.8 589.327C1025.93 589.327 1025.35 590.411 1025.45 591.872ZM1040.27 589.857C1040.27 590.439 1040.77 591.629 1041.4 592.502C1042.02 593.376 1042.53 593.614 1042.53 593.032C1042.53 592.449 1042.02 591.259 1041.4 590.386C1040.77 589.513 1040.27 589.274 1040.27 589.857ZM802.008 592.778C800.957 593.924 805.503 607.496 822.711 654.606C834.838 687.803 845.429 716.096 846.246 717.477L847.731 719.991L848.891 717.637C849.808 715.777 848.883 712.232 844.476 700.725C841.41 692.718 835.493 676.642 831.329 665C821.974 638.842 805.371 594.577 804.211 592.7C803.51 591.565 803.106 591.578 802.008 592.778ZM556.4 595.236C556.457 596.469 556.734 596.72 557.106 595.876C557.444 595.112 557.402 594.199 557.014 593.848C556.626 593.496 556.35 594.121 556.4 595.236ZM570.519 603.086C570.519 604.541 570.785 605.137 571.109 604.409C571.434 603.682 571.434 602.491 571.109 601.763C570.785 601.036 570.519 601.631 570.519 603.086ZM555.324 605.203C555.324 606.658 555.589 607.254 555.913 606.526C556.238 605.799 556.238 604.608 555.913 603.88C555.589 603.153 555.324 603.747 555.324 605.203ZM554.198 614.199C554.222 615.945 554.483 616.531 554.78 615.502C555.077 614.472 555.057 613.043 554.737 612.327C554.417 611.61 554.175 612.452 554.198 614.199ZM1052.08 618.961C1052.08 619.834 1052.53 621.501 1053.09 622.666C1053.72 624 1054.09 624.195 1054.09 623.195C1054.09 622.322 1053.64 620.655 1053.09 619.491C1052.45 618.156 1052.08 617.961 1052.08 618.961ZM1055.52 630.162C1055.57 631.395 1055.85 631.646 1056.22 630.802C1056.56 630.038 1056.52 629.125 1056.13 628.773C1055.74 628.422 1055.47 629.046 1055.52 630.162ZM551.86 635.366C551.884 637.112 552.146 637.699 552.443 636.669C552.739 635.639 552.72 634.21 552.399 633.494C552.079 632.777 551.837 633.62 551.86 635.366ZM320.706 650.911C319.344 654.799 319.672 665.887 321.305 671.17C323.531 678.366 325.359 678.743 324.121 671.75C323.568 668.619 323.207 662.13 323.319 657.327C323.516 648.892 322.387 646.119 320.706 650.911ZM1082.31 650.07C1082.31 650.298 1083.12 650.769 1084.12 651.116C1085.16 651.477 1085.63 651.299 1085.22 650.7C1084.54 649.694 1082.31 649.212 1082.31 650.07ZM1083.55 655.558C1085.1 657.242 1086.98 657.554 1086.98 656.128C1086.98 655.613 1085.9 654.936 1084.58 654.623C1082.61 654.156 1082.42 654.323 1083.55 655.558ZM1083.99 664.949C1085.24 665.85 1085.86 666.587 1085.37 666.587C1084.89 666.587 1085.54 667.926 1086.83 669.562C1088.11 671.199 1089.52 673.822 1089.96 675.393C1091.24 680.013 1093.28 680.211 1092.33 675.624C1090.94 668.902 1089.57 666.754 1085.57 664.999C1082.24 663.535 1082.03 663.528 1083.99 664.949ZM363.944 676.558C362.687 681.095 363.598 682.198 367.779 681.201C370.41 680.575 371.335 679.838 370.868 678.738C370.435 677.713 370.955 677.144 372.375 677.091C373.667 677.043 372.888 676.432 370.454 675.583C364.866 673.635 364.75 673.652 363.944 676.558ZM1125.56 682.162C1125.56 682.647 1128.79 685.171 1132.73 687.773C1141.83 693.771 1151.34 703.409 1156.22 711.568C1159.36 716.834 1160.08 717.498 1160.41 715.455C1161.09 711.289 1154.83 701.389 1147.25 694.634C1140.72 688.808 1125.56 680.092 1125.56 682.162ZM593.67 695.092C595.542 698.259 595.113 702.741 592.518 707.125L590.156 711.117L593.617 709.496C598.178 707.361 600.726 703.916 600.726 699.887C600.726 697.181 600.008 696.304 596.593 694.829C592.569 693.092 592.492 693.098 593.67 695.092ZM1038.48 721.674C1030.18 726.931 1014.76 733.554 1005.16 735.979C998.524 737.656 1002.92 737.903 1011.24 736.319C1023.4 734.007 1042.51 724.563 1046.68 718.803C1049.22 715.28 1047.75 715.798 1038.48 721.674ZM852.863 721.973C851.543 725.072 851.9 728.894 853.821 732.259C854.802 733.975 855.737 735.381 855.899 735.381C856.429 735.381 855.563 727.535 854.614 723.739C853.877 720.793 853.52 720.431 852.863 721.973ZM1049.96 729.414C1030.19 736.854 1026.45 738.556 1029.89 738.556C1035.48 738.556 1066.31 726.693 1069.3 723.393C1070.18 722.419 1070.71 721.675 1070.47 721.741C1070.23 721.806 1061 725.259 1049.96 729.414ZM91.9662 750.898C92.7704 751.193 94.0854 751.193 94.8885 750.898C95.6927 750.605 95.0346 750.365 93.4274 750.365C91.8201 750.365 91.1632 750.605 91.9662 750.898ZM86.1218 751.957C86.926 752.251 88.241 752.251 89.044 751.957C89.8482 751.663 89.1901 751.423 87.5829 751.423C85.9757 751.423 85.3188 751.663 86.1218 751.957ZM80.2773 753.015C81.0815 753.309 82.3965 753.309 83.1996 753.015C84.0038 752.722 83.3457 752.482 81.7385 752.482C80.1312 752.482 79.4743 752.722 80.2773 753.015ZM70.634 754.431C67.4838 755.157 67.4242 755.241 70.0495 755.259C71.6568 755.269 74.2868 754.897 75.894 754.431C78.1839 753.768 78.3101 753.588 76.4784 753.603C75.1927 753.614 72.5627 753.987 70.634 754.431ZM58.3606 756.548C56.0708 757.211 55.9445 757.391 57.7762 757.375C59.062 757.365 61.692 756.992 63.6206 756.548C66.7708 755.822 66.8304 755.738 64.2051 755.72C62.5979 755.71 59.9679 756.082 58.3606 756.548ZM51.0551 758.307C51.8593 758.601 53.1743 758.601 53.9773 758.307C54.7815 758.014 54.1234 757.773 52.5162 757.773C50.909 757.773 50.252 758.014 51.0551 758.307ZM45.2106 759.365C46.0148 759.659 47.3298 759.659 48.1328 759.365C48.937 759.072 48.2789 758.832 46.6717 758.832C45.0645 758.832 44.4076 759.072 45.2106 759.365ZM39.3662 760.424C40.1704 760.718 41.4854 760.718 42.2884 760.424C43.0926 760.13 42.4345 759.89 40.8273 759.89C39.22 759.89 38.5631 760.13 39.3662 760.424ZM34.7642 761.504C35.607 761.81 36.6158 761.772 37.0038 761.421C37.3919 761.069 36.7023 760.819 35.4702 760.865C34.1085 760.916 33.8315 761.166 34.7642 761.504ZM1106.64 790.08C1107.48 790.386 1108.49 790.348 1108.88 789.996C1109.26 789.645 1108.58 789.395 1107.34 789.44C1105.98 789.491 1105.7 789.742 1106.64 790.08ZM1111.12 790.461C1111.67 790.957 1115.53 791.567 1119.71 791.817C1123.89 792.066 1125.85 792.06 1124.07 791.804C1122.29 791.547 1121.06 791.01 1121.33 790.611C1121.6 790.212 1119.19 789.812 1115.97 789.722C1112.74 789.632 1110.57 789.963 1111.12 790.461Z" fill="#EF5E55"/>
</svg>
