<svg width="195" height="214" viewBox="0 0 195 214" fill="none" xmlns="http://www.w3.org/2000/svg">
<path fill-rule="evenodd" clip-rule="evenodd" d="M82.0336 0.147902C67.6593 2.48799 58.1843 7.02226 49.4836 15.7261C35.5344 29.6809 30.6066 50.6933 36.9873 69.0098C44.7638 91.3343 63.6054 104.935 86.7553 104.935C101.736 104.935 113.786 100.154 124.023 90.1494C129.066 85.2209 133.559 78.7191 132.591 77.7511C132.378 77.5392 128.906 79.0217 124.873 81.0464C117.626 84.6866 117.409 84.728 105.706 84.728C94.448 84.728 93.5465 84.5752 87.2387 81.5885C63.7977 70.4914 54.2201 42.7652 65.9154 19.8572C67.9937 15.7853 77.0022 6.18047 82.0316 2.67231C85.2018 0.462344 85.2018 -0.367626 82.0336 0.147902ZM100.487 23.8099C98.9468 28.9465 94.2981 33.4699 88.1205 35.8445C84.7895 37.124 83.8042 37.8219 85.2788 37.8554C88.587 37.9303 94.8455 41.3901 97.2887 44.4951C98.4576 45.9806 99.9154 49.0689 100.528 51.3577L101.643 55.5203L104.836 48.9308C108.056 42.2871 111.078 39.539 116.895 37.9628C119.46 37.2679 119.423 37.2107 115.077 35.2432C110.016 32.9524 106.285 29.2462 103.533 23.7754L101.631 19.9943L100.487 23.8099ZM11.1308 69.0118C9.30799 73.759 11.9515 83.8911 15.8555 87.1203C17.4899 88.4718 20.8603 94.0923 20.0377 94.0923C19.8177 94.0923 17.2177 92.9853 14.2605 91.6319C11.3024 90.2786 6.75824 88.8808 4.16213 88.525C-0.261719 87.9188 -0.494495 87.9957 0.453401 89.7532C3.54664 95.492 11.91 98.9134 18.3391 97.0701C21.0773 96.2855 21.533 96.4728 22.7886 98.8986L24.1863 101.6L18.5768 101.195C12.8697 100.782 4.60402 102.363 4.60402 103.868C4.60402 106.722 15.0496 107.523 24.3313 105.381C26.3829 104.908 27.3456 105.526 30.0611 109.062C32.888 112.744 33.0863 113.348 31.5406 113.57C23.6113 114.707 19.366 116.171 16.3644 118.8L12.9881 121.757L20.956 121.478C27.8063 121.239 29.4032 120.834 32.3416 118.594L35.7593 115.989L39.1692 118.814C41.0571 120.378 41.9478 121.651 41.1646 121.666C36.7871 121.747 26.7518 129.369 28.5954 131.21C29.2247 131.84 38.8999 127.751 42.29 125.423C44.9197 123.617 45.0124 123.623 48.443 125.845C50.3575 127.085 51.9308 128.379 51.9377 128.721C51.9436 129.064 50.4443 130.491 48.6048 131.893C45.2778 134.43 42.4577 139.925 43.9965 140.875C45.2551 141.653 51.1851 137.256 53.4932 133.834L55.5764 130.744L60.4214 133.595C63.0856 135.162 65.9312 136.447 66.745 136.452C67.5587 136.456 65.9263 135.142 63.1171 133.532C56.7334 129.874 56.3161 129.185 59.1263 126.946C63.8007 123.222 66.3248 117.749 63.3687 117.749C61.3377 117.749 55.8752 122.6 54.8386 125.326L53.9528 127.655L49.9314 124.995L45.911 122.336L49.8131 118.552C53.3985 115.073 55.7352 110.361 54.4904 109.118C53.6342 108.262 46.8618 113.917 45.1584 116.909C44.2825 118.448 43.3435 119.709 43.0722 119.71C42.801 119.71 41.2475 118.63 39.62 117.308L36.6609 114.905L40.3883 111.796C44.1069 108.695 48.0041 102.429 48.0041 99.5531C48.0041 97.6714 47.6302 97.6675 44.0606 99.5127C40.9151 101.138 36.7743 106.155 35.7228 109.617C34.7878 112.694 34.0963 112.439 30.4349 107.68L27.2401 103.526L30.6263 101.789C33.8024 100.16 40.1131 93.5797 40.1131 91.8961C40.1131 91.4772 39.038 91.1352 37.7232 91.1352C35.3559 91.1352 29.998 94.8809 27.4482 98.319C26.4106 99.7168 25.8266 99.8518 24.7357 98.9469C22.6407 97.2101 22.9898 96.1761 27.2223 91.5876C30.9587 87.5363 34.2344 80.0035 32.8575 78.6274C31.6334 77.4042 26.8278 81.8527 24.3313 86.52C22.9751 89.0553 21.5932 91.1312 21.2607 91.1322C20.9283 91.1342 20.4293 88.316 20.1531 84.87C19.4735 76.4086 12.7968 64.6737 11.1308 69.0118ZM159.671 70.1769C156.021 75.3647 154.696 78.9133 154.048 85.2475C153.69 88.7478 153.226 91.7818 153.019 91.9898C152.811 92.1968 151.911 90.5427 151.018 88.314C149.444 84.3801 143.713 78.3209 141.568 78.3209C140.489 78.3209 140.882 80.9478 142.659 85.6191C143.172 86.9695 145.202 89.8547 147.168 92.0302C149.782 94.9203 150.572 96.526 150.106 97.9957C149.257 100.666 148.017 100.533 146.068 97.56C145.186 96.2135 143.015 94.2175 141.243 93.1243C138.038 91.144 133.818 90.4461 133.818 91.8961C133.818 93.5778 140.127 100.159 143.296 101.785L146.673 103.517L143.612 107.675C140.089 112.463 139.196 112.765 138.364 109.447C137.209 104.849 128.052 96.5684 126.186 98.4334C124.847 99.771 129.336 108.124 133.156 111.404L137.27 114.936L134.464 117.362L131.659 119.787L127.705 115.299C123.798 110.863 120.278 108.28 119.373 109.185C118.354 110.203 121.897 116.517 124.909 119.05C128.435 122.016 128.2 122.912 123.115 125.895C120.245 127.579 120.131 127.573 119.539 125.71C118.774 123.301 112.543 117.749 110.604 117.749C107.92 117.749 109.135 120.942 113.469 125.273L117.779 129.58L112.29 132.718C109.271 134.444 107.284 136.018 107.872 136.214C108.461 136.41 111.054 135.233 113.634 133.598C118.258 130.668 120.009 130.477 120.009 132.902C120.009 134.344 124.474 138.702 127.593 140.304C132.635 142.892 130.381 135.421 124.955 131.56C123.32 130.396 121.987 129.141 121.993 128.772C122 128.402 123.636 127.044 125.627 125.754C128.495 123.895 129.569 123.645 130.793 124.547C133.78 126.746 144.771 131.774 145.343 131.203C146.659 129.887 142.195 125.303 137.645 123.296L132.761 121.142L135.647 118.379C137.658 116.454 138.753 115.971 139.257 116.785C140.805 119.289 148.147 121.649 154.456 121.671L160.794 121.692L158.46 119.21C156.014 116.608 148.25 113.807 143.483 113.807H140.684L144.253 109.028L147.824 104.249L151.424 105.534C157.75 107.793 169.327 106.715 169.327 103.868C169.327 102.281 161.955 100.792 155.978 101.173L149.729 101.57L151.291 98.9282C152.654 96.6226 153.222 96.391 155.748 97.1155C160.493 98.4758 167.109 96.6887 170.891 93.0248C172.744 91.2308 174.259 89.3461 174.259 88.8365C174.259 87.2958 165.445 88.9902 159.64 91.6457C156.665 93.007 154.089 93.9789 153.915 93.8045C153.741 93.631 155.551 90.8808 157.937 87.6921C162.628 81.4259 164.366 76.5111 163.641 71.5737C163.017 67.3203 161.946 66.9438 159.671 70.1769ZM82.1145 150.693C74.9456 153.71 68.5037 159.853 64.9784 167.035C62.7236 171.628 62.3162 173.737 62.3113 180.835C62.3073 188.001 62.7186 190.107 65.1589 195.386C76.7793 220.533 113.561 220.104 125.329 194.685C126.992 191.093 127.4 188.332 127.37 180.835C127.338 172.584 127.012 170.852 124.624 166.262C118.625 154.73 109.609 149.091 96.3359 148.567C89.1552 148.284 87.1134 148.589 82.1145 150.693ZM15.454 150.524C15.454 151.203 15.4067 165.507 15.3485 182.314L15.243 212.871H18.061H20.879L21.1523 198.931L21.4255 184.991L28.55 184.616C43.9116 183.81 52.0087 174.986 48.8582 162.484C47.4132 156.747 41.7544 151.779 35.0235 150.336C28.04 148.84 15.454 148.961 15.454 150.524ZM146.873 181.018L147.134 212.871H159.956C172.739 212.871 172.78 212.863 173.114 210.507C173.478 207.927 173.509 207.928 158.245 210.028L153.574 210.671L153.313 180.228L153.052 149.785L149.832 149.476L146.613 149.165L146.873 181.018ZM188.068 180.835C188.068 198.184 188.4 212.431 188.808 212.495C189.215 212.559 190.657 212.671 192.013 212.742L194.479 212.871L194.74 181.081L195 149.292H191.534H188.068V180.835ZM88.1619 151.642C75.2445 155.216 67.7402 169.485 69.7633 186.626C71.0475 197.515 77.5023 206.731 86.1566 210.034C92.5996 212.492 101.811 211.572 107.821 207.866C122.119 199.053 125.207 172.971 113.562 159.375C107.43 152.216 97.269 149.123 88.1619 151.642ZM21.5932 167.281L21.8654 182.314L27.7599 181.991C38.0112 181.43 42.4143 176.904 42.4143 166.929C42.4143 157.269 37.159 152.259 27.0182 152.253L21.3209 152.249L21.5932 167.281Z" fill="#F3F4F6"/>
</svg>
