{
  "asset": {
    "generator": "Khronos glTF Blender I/O v4.0.44",
    "version": "2.0"
  },
  "extensionsUsed": [
    "KHR_lights_punctual"
  ],
  "extensionsRequired": [
    "KHR_lights_punctual"
  ],
  "extensions": {
    "KHR_lights_punctual": {
      "lights": [
        {
          "color": [
            1,
            1,
            1
          ],
          "intensity": 54351.41306588226,
          "type": "point",
          "name": "Light"
        }
      ]
    }
  },
  "scene": 0,
  "scenes": [
    {
      "name": "Scene",
      "nodes": [
        0,
        1,
        2,
        3,
        4,
        5,
        6,
        7,
        8
      ]
    }
  ],
  "nodes": [
    {
      "extensions": {
        "KHR_lights_punctual": {
          "light": 0
        }
      },
      "name": "Light",
      "rotation": [
        -0.28416627645492554,
        0.7269423007965088,
        0.34203392267227173,
        0.5232754945755005
      ],
      "translation": [
        4.076245307922363,
        5.903861999511719,
        -1.0054539442062378
      ]
    },
    {
      "camera": 0,
      "name": "Camera",
      "rotation": [
        -0.20997299253940582,
        0.3857799470424652,
        0.09062844514846802,
        0.8937962055206299
      ],
      "translation": [
        7.358891487121582,
        4.958309173583984,
        6.925790786743164
      ]
    },
    {
      "mesh": 0,
      "name": "Cilindro",
      "rotation": [
        0,
        0,
        -0.7071068286895752,
        0.7071068286895752
      ],
      "scale": [
        0.15000000596046448,
        1.959999442100525,
        0.15000000596046448
      ]
    },
    {
      "mesh": 1,
      "name": "Cilindro.001",
      "rotation": [
        0,
        0,
        -0.7071068286895752,
        0.7071068286895752
      ],
      "scale": [
        0.7999999523162842,
        0.1600000262260437,
        0.7999999523162842
      ],
      "translation": [
        -1.159999966621399,
        0,
        0
      ]
    },
    {
      "mesh": 2,
      "name": "Cilindro.002",
      "rotation": [
        0,
        0,
        -0.7071068286895752,
        0.7071068286895752
      ],
      "scale": [
        0.5999999642372131,
        0.12000002712011337,
        0.5999999642372131
      ],
      "translation": [
        -1.4199999570846558,
        0,
        0
      ]
    },
    {
      "mesh": 3,
      "name": "Cilindro.003",
      "rotation": [
        0,
        0,
        -0.7071068286895752,
        0.7071068286895752
      ],
      "scale": [
        0.7999999523162842,
        0.1600000262260437,
        0.7999999523162842
      ],
      "translation": [
        1.1399999856948853,
        0,
        0
      ]
    },
    {
      "mesh": 4,
      "name": "Cilindro.004",
      "rotation": [
        0,
        0,
        -0.7071068286895752,
        0.7071068286895752
      ],
      "scale": [
        0.3999999761581421,
        0.12000002712011337,
        0.3999999761581421
      ],
      "translation": [
        -1.6599998474121094,
        0,
        0
      ]
    },
    {
      "mesh": 5,
      "name": "Cilindro.005",
      "rotation": [
        0,
        0,
        -0.7071068286895752,
        0.7071068286895752
      ],
      "scale": [
        0.5999999642372131,
        0.12000002712011337,
        0.5999999642372131
      ],
      "translation": [
        1.4000000953674316,
        0,
        0
      ]
    },
    {
      "mesh": 6,
      "name": "Cilindro.006",
      "rotation": [
        0,
        0,
        -0.7071068286895752,
        0.7071068286895752
      ],
      "scale": [
        0.3999999761581421,
        0.12000002712011337,
        0.3999999761581421
      ],
      "translation": [
        1.6400001049041748,
        0,
        0
      ]
    }
  ],
  "cameras": [
    {
      "name": "Camera",
      "perspective": {
        "aspectRatio": 1.7777777777777777,
        "yfov": 0.39959648408210363,
        "zfar": 100,
        "znear": 0.10000000149011612
      },
      "type": "perspective"
    }
  ],
  "materials": [
    {
      "doubleSided": true,
      "name": "Materiale",
      "pbrMetallicRoughness": {
        "baseColorFactor": [
          0.800000011920929,
          0.800000011920929,
          0.800000011920929,
          1
        ],
        "roughnessFactor": 0.22368422150611877
      }
    },
    {
      "doubleSided": true,
      "name": "Materiale.005",
      "pbrMetallicRoughness": {
        "baseColorFactor": [
          0,
          0,
          0,
          1
        ],
        "metallicFactor": 0,
        "roughnessFactor": 0.7894736528396606
      }
    },
    {
      "doubleSided": true,
      "name": "Materiale.006",
      "pbrMetallicRoughness": {
        "baseColorFactor": [
          0,
          0,
          0,
          1
        ],
        "metallicFactor": 0,
        "roughnessFactor": 0.5
      }
    },
    {
      "doubleSided": true,
      "name": "Materiale.008",
      "pbrMetallicRoughness": {
        "baseColorFactor": [
          0,
          0,
          0,
          1
        ],
        "metallicFactor": 0,
        "roughnessFactor": 0.5
      }
    },
    {
      "doubleSided": true,
      "name": "Materiale.007",
      "pbrMetallicRoughness": {
        "baseColorFactor": [
          0,
          0,
          0,
          1
        ],
        "metallicFactor": 0,
        "roughnessFactor": 0.5
      }
    },
    {
      "doubleSided": true,
      "name": "Materiale.009",
      "pbrMetallicRoughness": {
        "baseColorFactor": [
          0,
          0,
          0,
          1
        ],
        "metallicFactor": 0,
        "roughnessFactor": 0.5
      }
    },
    {
      "doubleSided": true,
      "name": "Materiale.010",
      "pbrMetallicRoughness": {
        "baseColorFactor": [
          0,
          0,
          0,
          1
        ],
        "metallicFactor": 0,
        "roughnessFactor": 0.5
      }
    }
  ],
  "meshes": [
    {
      "name": "Cilindro",
      "primitives": [
        {
          "attributes": {
            "POSITION": 0,
            "NORMAL": 1,
            "TEXCOORD_0": 2
          },
          "indices": 3,
          "material": 0
        }
      ]
    },
    {
      "name": "Cilindro.001",
      "primitives": [
        {
          "attributes": {
            "POSITION": 4,
            "NORMAL": 5,
            "TEXCOORD_0": 6
          },
          "indices": 7,
          "material": 1
        }
      ]
    },
    {
      "name": "Cilindro.002",
      "primitives": [
        {
          "attributes": {
            "POSITION": 8,
            "NORMAL": 9,
            "TEXCOORD_0": 10
          },
          "indices": 7,
          "material": 2
        }
      ]
    },
    {
      "name": "Cilindro.003",
      "primitives": [
        {
          "attributes": {
            "POSITION": 11,
            "NORMAL": 12,
            "TEXCOORD_0": 13
          },
          "indices": 7,
          "material": 3
        }
      ]
    },
    {
      "name": "Cilindro.004",
      "primitives": [
        {
          "attributes": {
            "POSITION": 14,
            "NORMAL": 15,
            "TEXCOORD_0": 16
          },
          "indices": 7,
          "material": 4
        }
      ]
    },
    {
      "name": "Cilindro.005",
      "primitives": [
        {
          "attributes": {
            "POSITION": 17,
            "NORMAL": 18,
            "TEXCOORD_0": 19
          },
          "indices": 7,
          "material": 5
        }
      ]
    },
    {
      "name": "Cilindro.006",
      "primitives": [
        {
          "attributes": {
            "POSITION": 20,
            "NORMAL": 21,
            "TEXCOORD_0": 22
          },
          "indices": 7,
          "material": 6
        }
      ]
    }
  ],
  "accessors": [
    {
      "bufferView": 0,
      "componentType": 5126,
      "count": 192,
      "max": [
        1,
        1,
        1
      ],
      "min": [
        -1,
        -1,
        -1
      ],
      "type": "VEC3"
    },
    {
      "bufferView": 1,
      "componentType": 5126,
      "count": 192,
      "type": "VEC3"
    },
    {
      "bufferView": 2,
      "componentType": 5126,
      "count": 192,
      "type": "VEC2"
    },
    {
      "bufferView": 3,
      "componentType": 5123,
      "count": 372,
      "type": "SCALAR"
    },
    {
      "bufferView": 4,
      "componentType": 5126,
      "count": 130,
      "max": [
        1,
        1,
        1
      ],
      "min": [
        -1,
        -1,
        -1
      ],
      "type": "VEC3"
    },
    {
      "bufferView": 5,
      "componentType": 5126,
      "count": 130,
      "type": "VEC3"
    },
    {
      "bufferView": 6,
      "componentType": 5126,
      "count": 130,
      "type": "VEC2"
    },
    {
      "bufferView": 7,
      "componentType": 5123,
      "count": 372,
      "type": "SCALAR"
    },
    {
      "bufferView": 8,
      "componentType": 5126,
      "count": 130,
      "max": [
        1,
        1,
        1
      ],
      "min": [
        -1,
        -1,
        -1
      ],
      "type": "VEC3"
    },
    {
      "bufferView": 9,
      "componentType": 5126,
      "count": 130,
      "type": "VEC3"
    },
    {
      "bufferView": 10,
      "componentType": 5126,
      "count": 130,
      "type": "VEC2"
    },
    {
      "bufferView": 11,
      "componentType": 5126,
      "count": 130,
      "max": [
        1,
        1,
        1
      ],
      "min": [
        -1,
        -1,
        -1
      ],
      "type": "VEC3"
    },
    {
      "bufferView": 12,
      "componentType": 5126,
      "count": 130,
      "type": "VEC3"
    },
    {
      "bufferView": 13,
      "componentType": 5126,
      "count": 130,
      "type": "VEC2"
    },
    {
      "bufferView": 14,
      "componentType": 5126,
      "count": 130,
      "max": [
        1,
        1,
        1
      ],
      "min": [
        -1,
        -1,
        -1
      ],
      "type": "VEC3"
    },
    {
      "bufferView": 15,
      "componentType": 5126,
      "count": 130,
      "type": "VEC3"
    },
    {
      "bufferView": 16,
      "componentType": 5126,
      "count": 130,
      "type": "VEC2"
    },
    {
      "bufferView": 17,
      "componentType": 5126,
      "count": 130,
      "max": [
        1,
        1,
        1
      ],
      "min": [
        -1,
        -1,
        -1
      ],
      "type": "VEC3"
    },
    {
      "bufferView": 18,
      "componentType": 5126,
      "count": 130,
      "type": "VEC3"
    },
    {
      "bufferView": 19,
      "componentType": 5126,
      "count": 130,
      "type": "VEC2"
    },
    {
      "bufferView": 20,
      "componentType": 5126,
      "count": 130,
      "max": [
        1,
        1,
        1
      ],
      "min": [
        -1,
        -1,
        -1
      ],
      "type": "VEC3"
    },
    {
      "bufferView": 21,
      "componentType": 5126,
      "count": 130,
      "type": "VEC3"
    },
    {
      "bufferView": 22,
      "componentType": 5126,
      "count": 130,
      "type": "VEC2"
    }
  ],
  "bufferViews": [
    {
      "buffer": 0,
      "byteLength": 2304,
      "byteOffset": 0,
      "target": 34962
    },
    {
      "buffer": 0,
      "byteLength": 2304,
      "byteOffset": 2304,
      "target": 34962
    },
    {
      "buffer": 0,
      "byteLength": 1536,
      "byteOffset": 4608,
      "target": 34962
    },
    {
      "buffer": 0,
      "byteLength": 744,
      "byteOffset": 6144,
      "target": 34963
    },
    {
      "buffer": 0,
      "byteLength": 1560,
      "byteOffset": 6888,
      "target": 34962
    },
    {
      "buffer": 0,
      "byteLength": 1560,
      "byteOffset": 8448,
      "target": 34962
    },
    {
      "buffer": 0,
      "byteLength": 1040,
      "byteOffset": 10008,
      "target": 34962
    },
    {
      "buffer": 0,
      "byteLength": 744,
      "byteOffset": 11048,
      "target": 34963
    },
    {
      "buffer": 0,
      "byteLength": 1560,
      "byteOffset": 11792,
      "target": 34962
    },
    {
      "buffer": 0,
      "byteLength": 1560,
      "byteOffset": 13352,
      "target": 34962
    },
    {
      "buffer": 0,
      "byteLength": 1040,
      "byteOffset": 14912,
      "target": 34962
    },
    {
      "buffer": 0,
      "byteLength": 1560,
      "byteOffset": 15952,
      "target": 34962
    },
    {
      "buffer": 0,
      "byteLength": 1560,
      "byteOffset": 17512,
      "target": 34962
    },
    {
      "buffer": 0,
      "byteLength": 1040,
      "byteOffset": 19072,
      "target": 34962
    },
    {
      "buffer": 0,
      "byteLength": 1560,
      "byteOffset": 20112,
      "target": 34962
    },
    {
      "buffer": 0,
      "byteLength": 1560,
      "byteOffset": 21672,
      "target": 34962
    },
    {
      "buffer": 0,
      "byteLength": 1040,
      "byteOffset": 23232,
      "target": 34962
    },
    {
      "buffer": 0,
      "byteLength": 1560,
      "byteOffset": 24272,
      "target": 34962
    },
    {
      "buffer": 0,
      "byteLength": 1560,
      "byteOffset": 25832,
      "target": 34962
    },
    {
      "buffer": 0,
      "byteLength": 1040,
      "byteOffset": 27392,
      "target": 34962
    },
    {
      "buffer": 0,
      "byteLength": 1560,
      "byteOffset": 28432,
      "target": 34962
    },
    {
      "buffer": 0,
      "byteLength": 1560,
      "byteOffset": 29992,
      "target": 34962
    },
    {
      "buffer": 0,
      "byteLength": 1040,
      "byteOffset": 31552,
      "target": 34962
    }
  ],
  "buffers": [
    {
      "uri": "weight_data.bin",
      "byteLength": 32592
    }
  ]
}