<svg  viewBox="0 0 142 64" fill="none" xmlns="http://www.w3.org/2000/svg">
<path fill-rule="evenodd" clip-rule="evenodd" d="M5.43776 6.8464L0 13.6928V31.9328V50.1729L5.43776 57.0193L10.8755 63.8657H35.1593C48.516 63.8657 59.4432 63.2877 59.4432 62.582C59.4432 61.8762 57.5255 59.0023 55.1813 56.1954L50.9208 51.0925H30.6287H10.3379V44.706V38.3194H40.7056H71.0733V50.6183V62.9173L76.2423 56.6808C80.4796 51.5699 81.4113 49.3506 81.4113 44.3818V38.3194L105.641 38.2955C132.342 38.2699 134.392 37.6951 139.2 28.8801C142.935 22.0321 142.934 16.2873 139.194 9.41699C134.834 1.40345 130.345 0.193193 104.617 0.0894115L81.9489 0L76.5111 6.8464C72.0942 12.4075 71.0733 14.8041 71.0733 19.6195V25.5463H40.7056H10.3379V19.1597V12.7731H30.7605H51.1831L55.3132 7.50741C57.5849 4.6127 59.4432 1.73874 59.4432 1.12084C59.4432 0.504538 48.516 0 35.1593 0H10.8755L5.43776 6.8464ZM81.4113 19.1597V25.5463H105.059C129.475 25.5463 131.809 24.9667 131.809 18.8963C131.809 13.763 127.332 12.7731 104.111 12.7731H81.4113V19.1597Z" fill="#F3F4F6"/>
</svg>

