<svg width="142" height="65" viewBox="0 0 142 65" fill="none" xmlns="http://www.w3.org/2000/svg">
<path fill-rule="evenodd" clip-rule="evenodd" d="M5.43776 7.38174L0 14.2281V32.4682V50.7082L5.43776 57.5546L10.8755 64.401H35.1593C48.516 64.401 59.4432 63.823 59.4432 63.1173C59.4432 62.4116 57.5255 59.5376 55.1813 56.7307L50.9208 51.6279H30.6287H10.3379V45.2413V38.8547H40.7056H71.0733V51.1537V63.4526L76.2423 57.2161C80.4796 52.1053 81.4113 49.8859 81.4113 44.9172V38.8547L105.641 38.8308C132.342 38.8052 134.392 38.2304 139.2 29.4154C142.935 22.5674 142.934 16.8227 139.194 9.95233C134.834 1.93879 130.345 0.728533 104.617 0.624751L81.9489 0.535339L76.5111 7.38174C72.0942 12.9428 71.0733 15.3394 71.0733 20.1549V26.0816H40.7056H10.3379V19.695V13.3085H30.7605H51.1831L55.3131 8.04275C57.5849 5.14804 59.4432 2.27408 59.4432 1.65618C59.4432 1.03988 48.516 0.535339 35.1593 0.535339H10.8755L5.43776 7.38174ZM81.4113 19.695V26.0816H105.059C129.475 26.0816 131.809 25.502 131.809 19.4316C131.809 14.2984 127.332 13.3085 104.111 13.3085H81.4113V19.695Z" fill="black"/>
</svg>
